# Blender v2.78 (sub 0) OBJ File: ''
# www.blender.org
mtllib shit.mtl
o Cone
v 0.000000 -0.480000 -1.110000
v 0.000000 0.480000 -0.461000
v 0.327178 -0.480000 -1.060686
v 0.135882 0.480000 -0.440519
v 0.625285 -0.480000 -0.917125
v 0.259691 0.480000 -0.380896
v 0.867833 -0.480000 -0.692074
v 0.360424 0.480000 -0.287429
v 1.033270 -0.480000 -0.405528
v 0.429133 0.480000 -0.168422
v 1.106896 -0.480000 -0.082950
v 0.459711 0.480000 -0.034451
v 1.082170 -0.480000 0.246998
v 0.449442 0.480000 0.102582
v 0.961288 -0.480000 0.555000
v 0.399238 0.480000 0.230500
v 0.754992 -0.480000 0.813688
v 0.313560 0.480000 0.337937
v 0.481611 -0.480000 1.000075
v 0.200020 0.480000 0.415347
v 0.165437 -0.480000 1.097602
v 0.068708 0.480000 0.455851
v -0.165437 -0.480000 1.097602
v -0.068709 0.480000 0.455851
v -0.481611 -0.480000 1.000075
v -0.200021 0.480000 0.415347
v -0.754992 -0.480000 0.813687
v -0.313560 0.480000 0.337937
v -0.961288 -0.480000 0.555000
v -0.399238 0.480000 0.230500
v -1.082170 -0.480000 0.246998
v -0.449442 0.480000 0.102582
v -1.106896 -0.480000 -0.082950
v -0.459711 0.480000 -0.034450
v -1.033270 -0.480000 -0.405528
v -0.429133 0.480000 -0.168422
v -0.867833 -0.480000 -0.692073
v -0.360425 0.480000 -0.287429
v -0.625286 -0.480000 -0.917124
v -0.259691 0.480000 -0.380896
v -0.327179 -0.480000 -1.060685
v -0.135883 0.480000 -0.440519
vt 0.0476 0.5000
vt 0.0476 1.0000
vt 0.0000 1.0000
vt 0.0000 0.5000
vt 0.0952 0.5000
vt 0.0952 1.0000
vt 0.0476 1.0000
vt 0.0476 0.5000
vt 0.1429 0.5000
vt 0.1429 1.0000
vt 0.0952 1.0000
vt 0.0952 0.5000
vt 0.1905 0.5000
vt 0.1905 1.0000
vt 0.1429 1.0000
vt 0.1429 0.5000
vt 0.2381 0.5000
vt 0.2381 1.0000
vt 0.1905 1.0000
vt 0.1905 0.5000
vt 0.2857 0.5000
vt 0.2857 1.0000
vt 0.2381 1.0000
vt 0.2381 0.5000
vt 0.3333 0.5000
vt 0.3333 1.0000
vt 0.2857 1.0000
vt 0.2857 0.5000
vt 0.3810 0.5000
vt 0.3810 1.0000
vt 0.3333 1.0000
vt 0.3333 0.5000
vt 0.4286 0.5000
vt 0.4286 1.0000
vt 0.3810 1.0000
vt 0.3810 0.5000
vt 0.4762 0.5000
vt 0.4762 1.0000
vt 0.4286 1.0000
vt 0.4286 0.5000
vt 0.5238 0.5000
vt 0.5238 1.0000
vt 0.4762 1.0000
vt 0.4762 0.5000
vt 0.5714 0.5000
vt 0.5714 1.0000
vt 0.5238 1.0000
vt 0.5238 0.5000
vt 0.6190 0.5000
vt 0.6190 1.0000
vt 0.5714 1.0000
vt 0.5714 0.5000
vt 0.6667 0.5000
vt 0.6667 1.0000
vt 0.6190 1.0000
vt 0.6190 0.5000
vt 0.7143 0.5000
vt 0.7143 1.0000
vt 0.6667 1.0000
vt 0.6667 0.5000
vt 0.7619 0.5000
vt 0.7619 1.0000
vt 0.7143 1.0000
vt 0.7143 0.5000
vt 0.8095 0.5000
vt 0.8095 1.0000
vt 0.7619 1.0000
vt 0.7619 0.5000
vt 0.8571 0.5000
vt 0.8571 1.0000
vt 0.8095 1.0000
vt 0.8095 0.5000
vt 0.9048 0.5000
vt 0.9048 1.0000
vt 0.8571 1.0000
vt 0.8571 0.5000
vt 0.3207 0.4793
vt 0.2500 0.4900
vt 0.1793 0.4793
vt 0.1148 0.4483
vt 0.0624 0.3996
vt 0.0266 0.3377
vt 0.0107 0.2679
vt 0.0160 0.1966
vt 0.0422 0.1300
vt 0.0868 0.0741
vt 0.1459 0.0338
vt 0.2142 0.0127
vt 0.2858 0.0127
vt 0.3541 0.0338
vt 0.4132 0.0741
vt 0.4578 0.1300
vt 0.4840 0.1966
vt 0.4893 0.2679
vt 0.4734 0.3377
vt 0.4376 0.3996
vt 0.3852 0.4483
vt 0.9524 0.5000
vt 0.9524 1.0000
vt 0.9048 1.0000
vt 0.9048 0.5000
vt 1.0000 0.5000
vt 1.0000 1.0000
vt 0.9524 1.0000
vt 0.9524 0.5000
vt 0.7500 0.4900
vt 0.8207 0.4793
vt 0.8852 0.4483
vt 0.9376 0.3996
vt 0.9734 0.3377
vt 0.9893 0.2679
vt 0.9840 0.1966
vt 0.9578 0.1300
vt 0.9132 0.0741
vt 0.8541 0.0338
vt 0.7858 0.0127
vt 0.7142 0.0127
vt 0.6459 0.0338
vt 0.5868 0.0741
vt 0.5422 0.1300
vt 0.5160 0.1966
vt 0.5107 0.2679
vt 0.5266 0.3377
vt 0.5624 0.3996
vt 0.6148 0.4483
vt 0.6793 0.4793
vn 0.1239 0.5557 -0.8221
vn 0.3607 0.5557 -0.7490
vn 0.5655 0.5557 -0.6094
vn 0.7200 0.5557 -0.4157
vn 0.8105 0.5557 -0.1850
vn 0.8290 0.5557 0.0621
vn 0.7739 0.5557 0.3037
vn 0.6500 0.5557 0.5183
vn 0.4683 0.5557 0.6869
vn 0.2450 0.5557 0.7944
vn -0.0000 0.5557 0.8313
vn -0.2450 0.5557 0.7944
vn -0.4683 0.5557 0.6869
vn -0.6500 0.5557 0.5183
vn -0.7739 0.5557 0.3037
vn -0.8290 0.5557 0.0621
vn -0.8105 0.5557 -0.1850
vn -0.7200 0.5557 -0.4157
vn -0.5655 0.5557 -0.6094
vn 0.0000 1.0000 -0.0000
vn -0.3607 0.5557 -0.7490
vn -0.1239 0.5557 -0.8221
vn 0.0000 -1.0000 0.0000
usemtl None
s off
f 1/1/1 2/2/1 4/3/1 3/4/1
f 3/5/2 4/6/2 6/7/2 5/8/2
f 5/9/3 6/10/3 8/11/3 7/12/3
f 7/13/4 8/14/4 10/15/4 9/16/4
f 9/17/5 10/18/5 12/19/5 11/20/5
f 11/21/6 12/22/6 14/23/6 13/24/6
f 13/25/7 14/26/7 16/27/7 15/28/7
f 15/29/8 16/30/8 18/31/8 17/32/8
f 17/33/9 18/34/9 20/35/9 19/36/9
f 19/37/10 20/38/10 22/39/10 21/40/10
f 21/41/11 22/42/11 24/43/11 23/44/11
f 23/45/12 24/46/12 26/47/12 25/48/12
f 25/49/13 26/50/13 28/51/13 27/52/13
f 27/53/14 28/54/14 30/55/14 29/56/14
f 29/57/15 30/58/15 32/59/15 31/60/15
f 31/61/16 32/62/16 34/63/16 33/64/16
f 33/65/17 34/66/17 36/67/17 35/68/17
f 35/69/18 36/70/18 38/71/18 37/72/18
f 37/73/19 38/74/19 40/75/19 39/76/19
f 4/77/20 2/78/20 42/79/20 40/80/20 38/81/20 36/82/20 34/83/20 32/84/20 30/85/20 28/86/20 26/87/20 24/88/20 22/89/20 20/90/20 18/91/20 16/92/20 14/93/20 12/94/20 10/95/20 8/96/20 6/97/20
f 39/98/21 40/99/21 42/100/21 41/101/21
f 41/102/22 42/103/22 2/104/22 1/105/22
f 1/106/23 3/107/23 5/108/23 7/109/23 9/110/23 11/111/23 13/112/23 15/113/23 17/114/23 19/115/23 21/116/23 23/117/23 25/118/23 27/119/23 29/120/23 31/121/23 33/122/23 35/123/23 37/124/23 39/125/23 41/126/23
